<svg width="73" height="79" viewBox="0 0 73 79" fill="none" xmlns="http://www.w3.org/2000/svg">
<path d="M59.3125 0C63.0829 0 66.3068 1.44868 68.9841 4.34603C71.6614 7.24338 73 10.7322 73 14.8125V64.1875C73 68.2678 71.6614 71.7566 68.9841 74.654C66.3068 77.5513 63.0829 79 59.3125 79H50.3776V48.3978H59.8353L61.2611 36.4655H50.3776V28.8535C50.3776 26.9334 50.7499 25.4933 51.4945 24.5332C52.239 23.5731 53.6886 23.0931 55.8431 23.0931L61.6413 23.0417V12.3952C59.6452 12.0866 56.8253 11.9323 53.1816 11.9323C48.8726 11.9323 45.427 13.3038 42.8447 16.0469C40.2625 18.7899 38.9714 22.6645 38.9714 27.6706V36.4655H29.4661V48.3978H38.9714V79H13.6875C9.9171 79 6.69325 77.5513 4.01595 74.654C1.33865 71.7566 0 68.2678 0 64.1875V14.8125C0 10.7322 1.33865 7.24338 4.01595 4.34603C6.69325 1.44868 9.9171 0 13.6875 0H59.3125Z" fill="#524656"/>
</svg>
