<svg width="72" height="78" viewBox="0 0 72 78" fill="none" xmlns="http://www.w3.org/2000/svg">
<path d="M36 29.328C34.2342 29.328 32.5081 29.8953 31.0399 30.958C29.5717 32.0208 28.4273 33.5314 27.7516 35.2987C27.0759 37.066 26.8991 39.0107 27.2435 40.8869C27.588 42.7631 28.4383 44.4865 29.6869 45.8391C30.9356 47.1918 32.5264 48.113 34.2582 48.4862C35.9901 48.8594 37.7852 48.6678 39.4166 47.9358C41.048 47.2037 42.4423 45.964 43.4234 44.3735C44.4044 42.7829 44.928 40.9129 44.928 39C44.928 37.7299 44.6971 36.4721 44.2484 35.2987C43.7997 34.1252 43.1421 33.059 42.313 32.1609C41.484 31.2627 40.4998 30.5503 39.4166 30.0642C38.3334 29.5782 37.1724 29.328 36 29.328ZM71.748 19.773C71.7291 16.7613 71.2171 13.777 70.236 10.959C69.5134 8.89691 68.3954 7.02427 66.9557 5.46462C65.5161 3.90498 63.7875 2.6938 61.884 1.911C59.2827 0.848109 56.5281 0.293517 53.748 0.273C49.104 -2.61515e-07 47.736 0 36 0C24.264 0 22.896 -2.61515e-07 18.252 0.273C15.4719 0.293517 12.7173 0.848109 10.116 1.911C8.21254 2.6938 6.48394 3.90498 5.04427 5.46462C3.6046 7.02427 2.48658 8.89691 1.764 10.959C0.78287 13.777 0.270939 16.7613 0.252 19.773C-2.41399e-07 24.804 0 26.286 0 39C0 51.714 -2.41399e-07 53.196 0.252 58.227C0.29075 61.2493 0.801988 64.2427 1.764 67.08C2.48338 69.1327 3.60046 70.9945 5.04 72.54C6.4735 74.109 8.2058 75.3202 10.116 76.089C12.7173 77.1519 15.4719 77.7065 18.252 77.727C22.896 78 24.264 78 36 78C47.736 78 49.104 78 53.748 77.727C56.5281 77.7065 59.2827 77.1519 61.884 76.089C63.7942 75.3202 65.5265 74.109 66.96 72.54C68.3995 70.9945 69.5166 69.1327 70.236 67.08C71.2162 64.2482 71.728 61.2513 71.748 58.227C72 53.196 72 51.714 72 39C72 26.286 72 24.804 71.748 19.773ZM62.604 50.973C62.4885 53.3797 62.0143 55.7503 61.2 57.993C60.5011 59.8638 59.4622 61.5632 58.1449 62.9903C56.8276 64.4173 55.2589 65.5429 53.532 66.3C51.4422 67.133 49.2418 67.594 47.016 67.665C44.172 67.665 43.416 67.665 36 67.665C28.584 67.665 27.828 67.665 24.984 67.665C22.7582 67.594 20.5578 67.133 18.468 66.3C16.6828 65.5813 15.0706 64.4347 13.752 62.946C12.4476 61.5469 11.4402 59.8567 10.8 57.993C10.028 55.7315 9.61418 53.3449 9.576 50.934C9.576 47.853 9.576 47.034 9.576 39C9.576 30.966 9.576 30.147 9.576 27.066C9.61418 24.6551 10.028 22.2686 10.8 20.007C11.4634 18.073 12.5218 16.3265 13.896 14.898C15.1932 13.4925 16.7517 12.4024 18.468 11.7C20.5578 10.867 22.7582 10.406 24.984 10.335C27.828 10.335 28.584 10.335 36 10.335C43.416 10.335 44.172 10.335 47.016 10.335C49.2418 10.406 51.4422 10.867 53.532 11.7C55.3172 12.4187 56.9294 13.5653 58.248 15.054C59.5524 16.4531 60.5598 18.1433 61.2 20.007C61.9689 22.2709 62.3944 24.6547 62.46 27.066C62.46 30.147 62.46 30.966 62.46 39C62.46 47.034 62.712 47.853 62.604 50.934V50.973ZM56.844 21.957C56.4154 20.6972 55.7396 19.5532 54.8632 18.6038C53.9869 17.6545 52.9309 16.9223 51.768 16.458C50.1713 15.8584 48.4896 15.568 46.8 15.6C43.992 15.6 43.2 15.6 36 15.6C28.8 15.6 28.008 15.6 25.2 15.6C23.5018 15.618 21.8198 15.9613 20.232 16.614C19.0869 17.0573 18.0421 17.7595 17.1669 18.674C16.2917 19.5885 15.6062 20.6943 15.156 21.918C14.6332 23.6549 14.3778 25.4732 14.4 27.3C14.4 30.342 14.4 31.2 14.4 39C14.4 46.8 14.4 47.658 14.4 50.7C14.4357 52.5377 14.752 54.3563 15.336 56.082C15.7646 57.3418 16.4404 58.4858 17.3168 59.4352C18.1931 60.3845 19.2491 61.1167 20.412 61.581C21.948 62.193 23.5643 62.5353 25.2 62.595C28.008 62.595 28.8 62.595 36 62.595C43.2 62.595 43.992 62.595 46.8 62.595C48.4982 62.577 50.1801 62.2337 51.768 61.581C52.9309 61.1167 53.9869 60.3845 54.8632 59.4352C55.7396 58.4858 56.4154 57.3418 56.844 56.082C57.4465 54.3618 57.7634 52.5398 57.78 50.7C57.78 47.658 57.78 46.8 57.78 39C57.78 31.2 57.78 30.342 57.78 27.3C57.781 25.4584 57.4636 23.6329 56.844 21.918V21.957ZM36 53.898C34.1958 53.898 32.4092 53.5124 30.7428 52.7632C29.0763 52.014 27.5627 50.916 26.2886 49.5321C25.0145 48.1482 24.0049 46.5056 23.3177 44.6983C22.6305 42.891 22.2793 40.9546 22.284 39C22.284 36.0518 23.0915 33.1699 24.6042 30.7191C26.1168 28.2683 28.2667 26.3588 30.7817 25.2324C33.2966 24.1059 36.0635 23.8132 38.7321 24.3912C41.4008 24.9692 43.8511 26.392 45.7729 28.4794C47.6947 30.5668 49.0016 33.225 49.5281 36.1175C50.0547 39.01 49.7772 42.0067 48.7308 44.7283C47.6844 47.4499 45.9162 49.7739 43.65 51.4062C41.3837 53.0385 38.7214 53.9057 36 53.898ZM50.4 27.027C49.6042 26.9357 48.8677 26.5287 48.3325 25.8842C47.7972 25.2397 47.5011 24.4034 47.5011 23.5365C47.5011 22.6696 47.7972 21.8333 48.3325 21.1888C48.8677 20.5443 49.6042 20.1373 50.4 20.046C51.1958 20.1373 51.9323 20.5443 52.4675 21.1888C53.0028 21.8333 53.2989 22.6696 53.2989 23.5365C53.2989 24.4034 53.0028 25.2397 52.4675 25.8842C51.9323 26.5287 51.1958 26.9357 50.4 27.027Z" fill="#524656"/>
</svg>
