<svg width="16" height="16" viewBox="0 0 16 16" fill="none" xmlns="http://www.w3.org/2000/svg">
<path d="M15.4602 5.88426C15.4131 5.74541 15.3263 5.6234 15.2106 5.53331C15.0949 5.44321 14.9554 5.38896 14.8092 5.37726L10.5335 5.03751L8.68321 0.941761C8.62428 0.809845 8.52844 0.697802 8.40724 0.619154C8.28605 0.540506 8.14468 0.498615 8.0002 0.498535C7.85572 0.498456 7.71431 0.540192 7.59303 0.618707C7.47175 0.697222 7.37578 0.80916 7.31671 0.941011L5.46646 5.03751L1.19071 5.37726C1.04705 5.38864 0.909712 5.44117 0.795125 5.52856C0.680538 5.61595 0.593553 5.7345 0.544579 5.87003C0.495604 6.00556 0.486712 6.15234 0.518967 6.29279C0.551223 6.43324 0.623259 6.56143 0.726459 6.66201L3.88621 9.74226L2.76871 14.5813C2.73478 14.7277 2.74565 14.881 2.79992 15.0212C2.85419 15.1615 2.94936 15.2821 3.07306 15.3676C3.19676 15.4531 3.3433 15.4994 3.49365 15.5005C3.644 15.5016 3.79122 15.4576 3.91621 15.374L7.99996 12.6515L12.0837 15.374C12.2115 15.4588 12.3621 15.5025 12.5154 15.4991C12.6687 15.4958 12.8173 15.4455 12.9413 15.3552C13.0652 15.2649 13.1584 15.1387 13.2085 14.9938C13.2586 14.8489 13.2631 14.6921 13.2215 14.5445L11.8497 9.74451L15.2517 6.68301C15.4745 6.48201 15.5562 6.16851 15.4602 5.88426V5.88426Z" fill="#F2C94C"/>
</svg>
