<svg width="73" height="79" viewBox="0 0 73 79" fill="none" xmlns="http://www.w3.org/2000/svg">
<path d="M73 17.9725C72.959 16.2684 72.8372 14.5676 72.635 12.877C72.3625 11.3962 71.9083 9.96154 71.2845 8.611C70.6321 7.14596 69.756 5.81056 68.693 4.661C67.6202 3.52421 66.3884 2.57773 65.043 1.8565C63.7934 1.19466 62.4676 0.716425 61.101 0.4345C59.5536 0.183673 57.9932 0.0385524 56.429 0H16.6075C15.0328 0.0443838 13.4612 0.176224 11.899 0.395C10.5307 0.68994 9.20497 1.18146 7.957 1.8565C6.60323 2.56251 5.36925 3.51065 4.307 4.661C3.25655 5.82195 2.38196 7.15501 1.7155 8.611C1.10392 9.96334 0.662013 11.398 0.4015 12.877C0.169723 14.5515 0.0356244 16.2402 0 17.933C0 18.6835 0 19.75 0 20.066V58.934C0 59.3685 0 60.3165 0 61.0275C0.0410129 62.7316 0.16284 64.4324 0.365 66.123C0.63754 67.6038 1.09173 69.0385 1.7155 70.389C2.36789 71.854 3.24402 73.1894 4.307 74.339C5.37977 75.4758 6.61159 76.4223 7.957 77.1435C9.20663 77.8053 10.5324 78.2836 11.899 78.5655C13.4464 78.8163 15.0068 78.9614 16.571 79H56.3925C57.9672 78.9556 59.5388 78.8238 61.101 78.605C62.4693 78.3101 63.795 77.8185 65.043 77.1435C66.3968 76.4375 67.6308 75.4893 68.693 74.339C69.7435 73.1781 70.618 71.845 71.2845 70.389C71.8961 69.0367 72.338 67.602 72.5985 66.123C72.8303 64.4485 72.9644 62.7598 73 61.067C73 60.3165 73 59.3685 73 58.934V20.066C73 19.75 73 18.6835 73 17.9725ZM37.3395 67.15C32.9561 67.1266 28.6493 65.9037 24.82 63.595L10.95 67.545L14.6 52.851C12.2462 48.571 10.9864 43.6905 10.95 38.71C10.9645 33.1126 12.5093 27.6449 15.3897 22.9957C18.2701 18.3466 22.3574 14.7237 27.1368 12.5836C31.9161 10.4434 37.1738 9.8816 42.2476 10.9689C47.3214 12.0562 51.9845 14.744 55.6495 18.6938C59.3145 22.6436 61.8175 27.6787 62.8433 33.1649C63.8691 38.6512 63.3719 44.3433 61.4141 49.5243C59.4564 54.7054 56.1258 59.1436 51.8417 62.2801C47.5576 65.4166 42.5117 67.111 37.3395 67.15ZM37.3395 15.2865C33.4698 15.3344 29.6809 16.4912 26.3587 18.639C23.0364 20.7868 20.2994 23.849 18.4263 27.5138C16.5532 31.1786 15.6109 35.3151 15.6953 39.5021C15.7798 43.6891 16.8879 47.7772 18.907 51.35L19.418 52.2585L17.228 60.909L25.55 58.46L26.353 58.9735C29.6729 61.0897 33.4501 62.2206 37.303 62.252C43.1112 62.252 48.6816 59.755 52.7886 55.3104C56.8957 50.8658 59.203 44.8376 59.203 38.552C59.203 32.2664 56.8957 26.2382 52.7886 21.7936C48.6816 17.349 43.1112 14.852 37.303 14.852L37.3395 15.2865ZM50.1145 48.9405C49.6364 49.8034 48.9963 50.5482 48.2355 51.1265C47.4748 51.7049 46.6103 52.104 45.698 52.298C44.3349 52.5676 42.9315 52.4727 41.61 52.0215C40.3666 51.6008 39.1478 51.0996 37.96 50.5205C33.4477 48.0702 29.5995 44.3956 26.791 39.8555C25.2649 37.752 24.3389 35.2125 24.1265 32.548C24.1048 31.4412 24.2982 30.3417 24.6944 29.321C25.0905 28.3003 25.6805 27.3811 26.426 26.623C26.6456 26.3536 26.915 26.137 27.2168 25.9873C27.5186 25.8376 27.846 25.7581 28.178 25.754H29.2C29.6015 25.754 30.149 25.754 30.66 26.9785C31.171 28.203 32.5215 31.8765 32.704 32.232C32.7937 32.4215 32.8405 32.6313 32.8405 32.8442C32.8405 33.0572 32.7937 33.267 32.704 33.4565C32.5426 33.8857 32.321 34.2854 32.047 34.6415C31.7185 35.076 31.3535 35.5895 31.0615 35.9055C30.7695 36.2215 30.4045 36.6165 30.7695 37.3275C31.7626 39.1413 32.9919 40.7909 34.4195 42.2255C35.9741 43.7121 37.7516 44.901 39.6755 45.741C40.3325 46.0965 40.734 46.057 41.099 45.741C41.464 45.425 42.7415 43.687 43.1795 42.976C43.6175 42.265 44.0555 42.3835 44.6395 42.6205C45.2235 42.8575 48.472 44.556 49.129 44.9115C49.786 45.267 50.1875 45.425 50.37 45.741C50.5283 46.7748 50.4404 47.8352 50.1145 48.822V48.9405Z" fill="#524656"/>
</svg>
